<?xml version="1.0" standalone="no"?><!DOCTYPE svg PUBLIC "-//W3C//DTD SVG 1.1//EN" "http://www.w3.org/Graphics/SVG/1.1/DTD/svg11.dtd"><svg t="1710531088525" class="icon" viewBox="0 0 1024 1024" version="1.1" xmlns="http://www.w3.org/2000/svg" p-id="9294" xmlns:xlink="http://www.w3.org/1999/xlink" width="64" height="64"><path d="M738.878908 954.335602H50.81926A49.304377 49.304377 0 0 1 1.656272 905.192812V858.433438C1.656272 693.856599 139.369193 561.152889 298.936821 561.152889h189.218928c162.173225 0 299.785155 132.70371 299.785155 297.341144v46.698779a49.284179 49.284179 0 0 1-49.14279 49.14279zM394.838985 512.010099A221.17285 221.17285 0 1 1 616.052232 290.857447a220.162929 220.162929 0 0 1-221.172851 221.172851zM801.170878 316.852832v-73.724284A49.14279 49.14279 0 0 1 850.354064 193.904965a49.14279 49.14279 0 0 1 49.14279 49.142789v73.724284h73.724283a49.14279 49.14279 0 0 1 49.14279 49.142789 49.14279 49.14279 0 0 1-49.14279 49.162988h-73.724283V488.802099A49.14279 49.14279 0 0 1 850.354064 538.025682 49.162988 49.162988 0 0 1 801.170878 488.802099v-73.64349h-73.704085a49.162988 49.162988 0 0 1-49.162988-49.162988 49.162988 49.162988 0 0 1 49.162988-49.142789z" fill="#3377FF" p-id="9295"></path></svg>