<?xml version="1.0" standalone="no"?><!DOCTYPE svg PUBLIC "-//W3C//DTD SVG 1.1//EN" "http://www.w3.org/Graphics/SVG/1.1/DTD/svg11.dtd"><svg t="1710145593872" class="icon" viewBox="0 0 1024 1024" version="1.1" xmlns="http://www.w3.org/2000/svg" p-id="24539" xmlns:xlink="http://www.w3.org/1999/xlink" width="64" height="64"><path d="M763.733333 102.4h-512c-93.866667 0-170.666667 76.8-170.666666 170.666667v512c0 93.866667 76.8 170.666667 170.666666 170.666666h512c93.866667 0 170.666667-76.8 170.666667-170.666666v-512c0-93.866667-76.8-170.666667-170.666667-170.666667z m-64 277.333333c12.8-8.533333 29.866667-8.533333 38.4 0 12.8 12.8 12.8 29.866667 4.266667 38.4-12.8 12.8-29.866667 25.6-42.666667 42.666667 0-25.6-4.266667-46.933333-17.066666-64l17.066666-17.066667z m-413.866666 0c12.8-12.8 29.866667-12.8 42.666666 0 4.266667 4.266667 8.533333 8.533333 12.8 17.066667-12.8 21.333333-21.333333 42.666667-17.066666 64l-4.266667-4.266667-34.133333-34.133333c-12.8-12.8-12.8-29.866667 0-42.666667z m-51.2 200.533334c0-17.066667 8.533333-29.866667 21.333333-34.133334H320v59.733334H264.533333c-17.066667 0-29.866667-12.8-29.866666-25.6z m119.466666 192c-12.8 8.533333-29.866667 8.533333-38.4-4.266667-8.533333-12.8-12.8-29.866667 0-38.4l4.266667-4.266667 21.333333-21.333333c12.8 17.066667 21.333333 34.133333 34.133334 51.2-8.533333 4.266667-12.8 12.8-21.333334 17.066667z m132.266667 4.266666c-34.133333-4.266667-46.933333-8.533333-72.533333-29.866666-29.866667-25.6-51.2-59.733333-59.733334-98.133334-4.266667-17.066667 0-38.4-4.266666-55.466666v-46.933334-81.066666c0-21.333333 8.533333-38.4 21.333333-51.2 0 0 4.266667-4.266667 8.533333 0 25.6 17.066667 55.466667 34.133333 81.066667 51.2 17.066667 12.8 25.6 29.866667 25.6 46.933333 4.266667 0 4.266667 247.466667 0 264.533333 4.266667 0 4.266667 0 0 0z m0-349.866666c-25.6-17.066667-55.466667-34.133333-81.066667-51.2l-4.266666-4.266667c0-55.466667 42.666667-102.4 102.4-110.933333h12.8c59.733333 0 110.933333 51.2 115.2 110.933333 0 0 0 4.266667-4.266667 4.266667-29.866667 17.066667-55.466667 34.133333-85.333333 51.2-17.066667 12.8-38.4 12.8-55.466667 0z m64 349.866666h-17.066667c0-8.533333 4.266667-256 4.266667-268.8 0-25.6 8.533333-42.666667 29.866667-55.466666 25.6-17.066667 51.2-29.866667 76.8-46.933334 4.266667-4.266667 4.266667 0 8.533333 0 12.8 12.8 21.333333 29.866667 21.333333 51.2v170.666667c0 29.866667-12.8 59.733333-29.866666 85.333333-29.866667 38.4-51.2 59.733333-93.866667 64z m162.133333-8.533333c-8.533333 12.8-25.6 12.8-38.4 4.266667-8.533333-4.266667-12.8-12.8-17.066666-17.066667 12.8-17.066667 21.333333-34.133333 34.133333-51.2l25.6 25.6c8.533333 8.533333 4.266667 29.866667-4.266667 38.4z m42.666667-162.133333h-51.2-4.266667v-59.733334h55.466667c17.066667 0 29.866667 12.8 29.866667 29.866667 4.266667 17.066667-12.8 29.866667-29.866667 29.866667z" fill="#FA5A55" p-id="24540"></path></svg>