<?xml version="1.0" standalone="no"?><!DOCTYPE svg PUBLIC "-//W3C//DTD SVG 1.1//EN" "http://www.w3.org/Graphics/SVG/1.1/DTD/svg11.dtd"><svg t="1711474774229" class="icon" viewBox="0 0 1024 1024" version="1.1" xmlns="http://www.w3.org/2000/svg" p-id="6884" xmlns:xlink="http://www.w3.org/1999/xlink" width="64" height="64"><path d="M452.8 171.2c-14.4-6.4-30.4-11.2-46.4-14.4-9.6-1.6-17.6-3.2-27.2-3.2h-8c-9.6 0-19.2 1.6-27.2 3.2-20.8 3.2-40 9.6-57.6 19.2-56 30.4-86.4 84.8-86.4 156.8v8c0 6.4 0 16 1.6 25.6 1.6 17.6 3.2 35.2 8 51.2 8 32 19.2 56 35.2 73.6 1.6 1.6 4.8 4.8 8 9.6s4.8 8 4.8 11.2c0 3.2 0 1.6-1.6 3.2-4.8 4.8-16 11.2-40 22.4-120 59.2-160 92.8-160 148.8l-3.2 52.8c-1.6 22.4 16 43.2 38.4 44.8h115.2c0-19.2 0-36.8 1.6-51.2H104l3.2-44.8v-1.6c0-30.4 28.8-54.4 131.2-104 54.4-27.2 70.4-40 70.4-73.6v-6.4c-1.6-11.2-6.4-20.8-12.8-32-3.2-6.4-8-11.2-12.8-17.6-9.6-9.6-17.6-25.6-22.4-49.6-3.2-14.4-4.8-28.8-6.4-43.2 0-6.4-1.6-14.4-1.6-22.4v-8c0-54.4 20.8-91.2 59.2-112 12.8-6.4 27.2-11.2 41.6-14.4 6.4-1.6 12.8-1.6 19.2-1.6h8c3.2 0 11.2 0 17.6 1.6s12.8 3.2 17.6 4.8c8-12.8 20.8-25.6 36.8-36.8z m353.6 427.2c-43.2-20.8-48-25.6-48-32 0-1.6 3.2-8 6.4-12.8s6.4-8 8-11.2c17.6-19.2 30.4-46.4 38.4-80 4.8-19.2 6.4-38.4 8-56 1.6-11.2 1.6-20.8 1.6-28.8V368c0-80-33.6-139.2-94.4-172.8-19.2-9.6-40-17.6-62.4-20.8-9.6-1.6-19.2-3.2-30.4-3.2H624c-8 0-19.2 1.6-30.4 3.2-22.4 3.2-43.2 11.2-62.4 20.8-60.8 33.6-94.4 92.8-94.4 172.8v9.6c0 8 0 17.6 1.6 28.8 1.6 20.8 4.8 38.4 8 56 8 35.2 20.8 60.8 38.4 80 1.6 1.6 4.8 6.4 8 11.2 3.2 6.4 6.4 11.2 6.4 12.8 0 8-3.2 11.2-48 32-132.8 65.6-176 102.4-176 164.8l-4.8 59.2c-1.6 24 16 44.8 40 46.4 12.8 1.6 627.2 1.6 638.4 0 24-3.2 41.6-24 38.4-48l-6.4-59.2c1.6-60.8-43.2-97.6-174.4-163.2z m150.4 166.4l25.6-1.6v-1.6l-25.6 3.2h-17.6 17.6z m-24 0l6.4 52.8H326.4l3.2-52.8c0-36.8 33.6-64 148.8-121.6 60.8-30.4 76.8-44.8 76.8-78.4v-6.4c-1.6-11.2-6.4-22.4-14.4-35.2-4.8-6.4-9.6-12.8-14.4-17.6-11.2-11.2-19.2-30.4-25.6-56-3.2-16-6.4-32-6.4-49.6 0-8-1.6-16-1.6-24V368c0-60.8 24-104 67.2-126.4 14.4-8 30.4-12.8 46.4-16 8-1.6 16-1.6 20.8-3.2h9.6c4.8 0 12.8 1.6 20.8 3.2 17.6 3.2 32 8 46.4 16 44.8 24 67.2 65.6 67.2 126.4v9.6c0 6.4 0 14.4-1.6 24-1.6 17.6-3.2 33.6-6.4 49.6-6.4 25.6-14.4 44.8-25.6 56-4.8 6.4-9.6 11.2-14.4 17.6-8 11.2-12.8 24-14.4 35.2v6.4c0 35.2 16 49.6 76.8 78.4 113.6 57.6 145.6 84.8 147.2 120h8-8z" fill="#ee7d2e" p-id="6885"></path></svg>