<?xml version="1.0" standalone="no"?><!DOCTYPE svg PUBLIC "-//W3C//DTD SVG 1.1//EN" "http://www.w3.org/Graphics/SVG/1.1/DTD/svg11.dtd"><svg t="1710145554113" class="icon" viewBox="0 0 1024 1024" version="1.1" xmlns="http://www.w3.org/2000/svg" p-id="23537" xmlns:xlink="http://www.w3.org/1999/xlink" width="64" height="64"><path d="M465.5 96c196.7 0 356.2 168 356.2 375.3 0 109.9-44.8 208.8-116.4 277.4H837V667l142.4 120c5.8 4.9 6.5 13.5 1.6 19.3-0.5 0.6-1.1 1.1-1.6 1.6L837.2 928v-81.7H48c-8.8 0-16-7.2-16-16v-65.9c0-8.8 7.2-16 16-16h417.5c145.4 0 263.3-124.3 263.3-277.4S611.1 193.9 465.5 193.9c-141.1 0-256.3 116.9-263 263.8l-0.4 13.4h77.5L166.8 620c-4.6 6-13.2 7.2-19.2 2.6-1-0.8-1.9-1.6-2.6-2.6L32 471.3h77.5C109.5 264 269 96 465.5 96z" fill="#F07E2E" p-id="23538"></path></svg>