<?xml version="1.0" standalone="no"?><!DOCTYPE svg PUBLIC "-//W3C//DTD SVG 1.1//EN" "http://www.w3.org/Graphics/SVG/1.1/DTD/svg11.dtd"><svg t="1710661448162" class="icon" viewBox="0 0 1024 1024" version="1.1" xmlns="http://www.w3.org/2000/svg" p-id="4353" xmlns:xlink="http://www.w3.org/1999/xlink" width="64" height="64"><path d="M256.09 481.16c-3.72 0-7.44-0.53-11.04-1.58-10.12-2.94-18.49-9.65-23.56-18.89s-6.25-19.9-3.3-30.02c13-44.7 36.54-86.59 68.07-121.13a39.557 39.557 0 0 1 29.15-12.86c9.86 0 19.3 3.66 26.59 10.31 7.78 7.1 12.34 16.81 12.82 27.34 0.48 10.53-3.17 20.61-10.27 28.4-23.44 25.69-40.94 56.8-50.59 89.98-4.87 16.75-20.44 28.45-37.87 28.45z" p-id="4354" fill="#ffffff"></path><path d="M256.09 471.29c-2.74 0-5.52-0.38-8.28-1.19-15.69-4.56-24.71-20.99-20.15-36.68 12.58-43.26 35.37-83.8 65.89-117.24 11.02-12.07 29.73-12.92 41.8-1.91 12.07 11.02 12.93 29.73 1.91 41.8-24.45 26.79-42.7 59.26-52.77 93.88-3.76 12.94-15.58 21.34-28.4 21.34zM513.32 823.98c-23.68 0-47.29-2.71-70.16-8.06-10.26-2.4-18.98-8.65-24.54-17.6-5.56-8.95-7.3-19.53-4.9-29.8 4.19-17.95 19.98-30.48 38.39-30.48 3.02 0 6.05 0.35 9.01 1.04 17 3.97 34.56 5.98 52.21 5.98 16.63 0 33.22-1.79 49.29-5.32 2.8-0.61 5.66-0.93 8.5-0.93 18.37 0 34.56 13.03 38.51 30.99 4.67 21.25-8.82 42.33-30.07 47-21.64 4.77-43.92 7.18-66.24 7.18z" p-id="4355" fill="#ffffff"></path><path d="M513.32 814.11c-22.93 0-45.78-2.62-67.92-7.8-15.91-3.72-25.8-19.63-22.08-35.55 3.72-15.91 19.63-25.8 35.55-22.08 17.73 4.14 36.05 6.24 54.45 6.24 17.34 0 34.64-1.87 51.41-5.55 15.96-3.51 31.75 6.59 35.25 22.55 3.51 15.96-6.59 31.74-22.55 35.25-20.94 4.61-42.51 6.94-64.11 6.94zM769.8 478.66c-17.25 0-32.78-11.54-37.76-28.07-10.28-34.08-28.79-65.78-53.54-91.69-15.03-15.73-14.46-40.75 1.28-55.78 7.37-7.05 17.05-10.93 27.25-10.93 10.88 0 21.02 4.33 28.53 12.2 33.28 34.84 58.19 77.51 72.03 123.42 6.28 20.83-5.55 42.88-26.38 49.17a39.502 39.502 0 0 1-11.41 1.68z" p-id="4356" fill="#ffffff"></path><path d="M769.8 468.8c-12.71 0-24.46-8.26-28.32-21.06-10.72-35.56-30.03-68.63-55.85-95.66-11.29-11.82-10.86-30.55 0.96-41.84 11.82-11.29 30.55-10.86 41.84 0.96 32.21 33.72 56.32 75.03 69.72 119.45 4.72 15.65-4.14 32.16-19.79 36.87-2.85 0.87-5.73 1.28-8.56 1.28z" p-id="4357" fill="#ffffff"></path><path d="M513.32 423.98c-99.25 0-180-80.75-180-180s80.75-180 180-180 180 80.75 180 180-80.75 180-180 180z m0-281.1c-55.74 0-101.09 45.35-101.09 101.09s45.35 101.09 101.09 101.09 101.09-45.35 101.09-101.09-45.35-101.09-101.09-101.09z" p-id="4358" fill="#ffffff"></path><path d="M513.32 414.12c-93.82 0-170.14-76.32-170.14-170.14S419.5 73.84 513.32 73.84s170.14 76.32 170.14 170.14c0 93.81-76.33 170.14-170.14 170.14z m0-281.1c-61.18 0-110.96 49.78-110.96 110.96s49.78 110.96 110.96 110.96c61.18 0 110.96-49.78 110.96-110.96S574.5 133.02 513.32 133.02z" p-id="4359" fill="#ffffff"></path><path d="M747.74 830.48c-31.41 0-62.43-8.33-89.72-24.08-41.64-24.04-71.42-62.86-83.87-109.3-12.44-46.44-6.06-94.95 17.98-136.59s62.86-71.42 109.3-83.87c15.37-4.12 31.14-6.21 46.86-6.21 31.29 0 62.31 8.36 89.72 24.19 85.96 49.63 115.51 159.93 65.89 245.89-32.02 55.5-91.87 89.97-156.16 89.97z m0.47-281.11c-8.83 0-17.7 1.18-26.34 3.49-26.08 6.99-47.88 23.72-61.39 47.1-13.5 23.39-17.09 50.63-10.1 76.71 6.99 26.08 23.72 47.88 47.1 61.38 15.4 8.89 32.82 13.59 50.37 13.59 8.83 0 17.69-1.18 26.34-3.49 26.08-6.99 47.88-23.72 61.39-47.1 27.87-48.28 11.27-110.23-37-138.1-15.41-8.88-32.82-13.58-50.37-13.58z" p-id="4360" fill="#ffffff"></path><path d="M747.74 820.62c-28.85 0-58.06-7.33-84.78-22.76-39.36-22.72-67.51-59.41-79.27-103.31-11.76-43.9-5.73-89.75 17-129.1 22.72-39.36 59.41-67.51 103.31-79.27 43.9-11.76 89.75-5.73 129.1 17 81.25 46.91 109.18 151.17 62.28 232.42-31.48 54.5-88.79 85.02-147.64 85.02z m0.47-281.11c-9.64 0-19.34 1.27-28.9 3.83-28.63 7.67-52.56 26.03-67.37 51.7-14.82 25.67-18.76 55.57-11.08 84.2 7.67 28.63 26.03 52.55 51.7 67.37 25.67 14.82 55.57 18.76 84.2 11.09 28.63-7.67 52.56-26.03 67.37-51.7 30.59-52.99 12.37-120.98-40.61-151.57-17.11-9.88-36.08-14.92-55.31-14.92z" p-id="4361" fill="#ffffff"></path><path d="M278.89 830.48c-31.09 0-61.84-8.07-88.92-23.34-27.92-15.74-51.17-38.78-67.25-66.62-49.63-85.96-20.07-196.26 65.89-245.89 27.29-15.75 58.31-24.08 89.71-24.08 31.09 0 61.84 8.07 88.92 23.34 27.92 15.74 51.17 38.78 67.25 66.62 24.04 41.64 30.43 90.15 17.98 136.59-12.44 46.44-42.23 85.26-83.87 109.3-27.28 15.75-58.31 24.08-89.71 24.08z m-0.48-281.04c-17.62 0-35.04 4.68-50.36 13.52-48.28 27.87-64.88 89.82-37 138.1 13.5 23.38 35.3 40.11 61.39 47.1 8.65 2.32 17.51 3.49 26.34 3.49 17.55 0 34.96-4.7 50.37-13.59 23.39-13.5 40.11-35.3 47.1-61.39 6.99-26.08 3.4-53.33-10.1-76.71-17.99-31.16-51.61-50.52-87.74-50.52z" p-id="4362" fill="#ffffff"></path><path d="M278.89 820.62c-58.85 0-116.15-30.51-147.63-85.04-46.91-81.25-18.97-185.51 62.28-232.42s185.51-18.97 232.41 62.28c22.72 39.36 28.76 85.21 17 129.1-11.76 43.9-39.92 80.59-79.27 103.31-26.73 15.44-55.95 22.77-84.79 22.77z m-55.77-266.2c-52.99 30.59-71.21 98.59-40.61 151.57 14.82 25.67 38.75 44.03 67.37 51.7 28.63 7.67 58.53 3.73 84.2-11.09s44.03-38.75 51.7-67.37c7.67-28.63 3.73-58.53-11.08-84.2-30.6-52.98-98.59-71.2-151.58-40.61z" p-id="4363" fill="#ffffff"></path></svg>