<?xml version="1.0" standalone="no"?><!DOCTYPE svg PUBLIC "-//W3C//DTD SVG 1.1//EN" "http://www.w3.org/Graphics/SVG/1.1/DTD/svg11.dtd"><svg t="1710100230168" class="icon" viewBox="0 0 1024 1024" version="1.1" xmlns="http://www.w3.org/2000/svg" p-id="1714" width="64" height="64" xmlns:xlink="http://www.w3.org/1999/xlink"><path d="M512 88.276m-88.276 0a88.276 88.276 0 1 0 176.552 0 88.276 88.276 0 1 0-176.552 0Z" fill="#FFD4B0" p-id="1715"></path><path d="M370.758 406.068v-141.242c0-19.508 15.802-35.31 35.31-35.31h70.62L512 264.828l35.31-35.31h70.62c19.508 0 35.31 15.802 35.31 35.31v141.242c0 19.508-15.802 35.31-35.31 35.31H406.068c-19.508 0-35.31-15.802-35.31-35.312z" fill="#4DB5FF" p-id="1716"></path><path d="M176.552 529.656c-9.746 0-17.656-7.91-17.656-17.656a17.64 17.64 0 0 1 5.172-12.482l123.586-123.586c7.01-6.78 18.184-6.586 24.964 0.442 6.604 6.85 6.604 17.69 0 24.524l-123.586 123.586a17.606 17.606 0 0 1-12.48 5.172zM847.448 529.656a17.614 17.614 0 0 1-12.482-5.172l-123.586-123.586c-6.78-7.01-6.586-18.184 0.442-24.964 6.85-6.604 17.69-6.604 24.524 0l123.586 123.586c6.886 6.904 6.886 18.078 0 24.964a17.65 17.65 0 0 1-12.484 5.172zM670.896 935.724H353.104c-9.746 0-17.656-7.91-17.656-17.656s7.91-17.656 17.656-17.656h317.794c9.746 0 17.656 7.91 17.656 17.656s-7.912 17.656-17.658 17.656z" fill="#235087" p-id="1717"></path><path d="M388.414 406.068c-5.968 0-11.794-0.53-17.656-0.882v0.882c0 19.508 15.802 35.31 35.31 35.31h211.862c19.508 0 35.31-15.802 35.31-35.31v-141.242a35.14 35.14 0 0 0-8.598-22.952c-46.062 100.018-146.096 164.124-256.228 164.194z" fill="#3596D8" p-id="1718"></path><path d="M0 988.69v-141.242c0-19.508 15.802-35.31 35.31-35.31h70.62l35.31 35.31 35.31-35.31h70.62c19.508 0 35.31 15.802 35.31 35.31v141.242c0 19.508-15.802 35.31-35.31 35.31H35.31C15.802 1024 0 1008.198 0 988.69z" fill="#EF2648" p-id="1719"></path><path d="M17.656 988.69c-5.968 0-11.794-0.53-17.656-0.882v0.882C0 1008.198 15.802 1024 35.31 1024h211.862c19.508 0 35.31-15.802 35.31-35.31v-141.242a35.14 35.14 0 0 0-8.598-22.952c-46.062 100.018-146.096 164.124-256.228 164.194z" fill="#B20D24" p-id="1720"></path><path d="M741.518 988.69v-141.242c0-19.508 15.802-35.31 35.31-35.31h70.62l35.31 35.31 35.31-35.31h70.62c19.508 0 35.31 15.802 35.31 35.31v141.242c0 19.508-15.802 35.31-35.31 35.31h-211.86c-19.51 0-35.31-15.802-35.31-35.31z" fill="#FFA511" p-id="1721"></path><path d="M759.172 988.69c-5.968 0-11.794-0.53-17.656-0.882v0.882c0 19.508 15.802 35.31 35.31 35.31h211.862c19.508 0 35.31-15.802 35.31-35.31v-141.242a35.14 35.14 0 0 0-8.598-22.952c-46.06 100.018-146.094 164.124-256.228 164.194z" fill="#F08015" p-id="1722"></path><path d="M564.754 17.868c29.342 38.682 21.768 93.82-16.896 123.162-31.408 23.834-74.858 23.834-106.266 0 29.008 39.018 84.144 47.14 123.162 18.15s47.14-84.144 18.15-123.162a88.008 88.008 0 0 0-18.15-18.15z" fill="#EDC4A2" p-id="1723"></path><path d="M882.758 670.896m-88.276 0a88.276 88.276 0 1 0 176.552 0 88.276 88.276 0 1 0-176.552 0Z" fill="#FFD4B0" p-id="1724"></path><path d="M935.512 600.488c29.342 38.682 21.768 93.82-16.896 123.162-31.408 23.834-74.858 23.834-106.266 0 29.008 39.018 84.144 47.14 123.162 18.15 39.018-28.99 47.14-84.144 18.15-123.162a87.96 87.96 0 0 0-18.15-18.15z" fill="#EDC4A2" p-id="1725"></path><path d="M141.242 670.896m-88.276 0a88.276 88.276 0 1 0 176.552 0 88.276 88.276 0 1 0-176.552 0Z" fill="#FFD4B0" p-id="1726"></path><path d="M193.996 600.488c29.342 38.682 21.768 93.82-16.896 123.162-31.408 23.834-74.858 23.834-106.266 0 29.008 39.018 84.144 47.14 123.162 18.15 39.018-29.008 47.14-84.144 18.15-123.162a88.056 88.056 0 0 0-18.15-18.15z" fill="#EDC4A2" p-id="1727"></path></svg>