<?xml version="1.0" standalone="no"?><!DOCTYPE svg PUBLIC "-//W3C//DTD SVG 1.1//EN" "http://www.w3.org/Graphics/SVG/1.1/DTD/svg11.dtd"><svg t="1710146052788" class="icon" viewBox="0 0 1024 1024" version="1.1" xmlns="http://www.w3.org/2000/svg" p-id="39755" xmlns:xlink="http://www.w3.org/1999/xlink" width="64" height="64"><path d="M709.312 0a192 192 0 0 1 191.872 183.488A192.064 192.064 0 0 1 1024 362.688V832a192 192 0 0 1-192 192H362.688a192.064 192.064 0 0 1-179.2-122.88A192 192 0 0 1 0 709.376V288A288 288 0 0 1 288 0h421.312z" fill="#1740DC" p-id="39756"></path><path d="M920 512H258.688v320a96 96 0 0 0 94.4 96h470.912a96 96 0 0 0 96-94.4V512z" fill="#DCE3FA" p-id="39757"></path><path d="M709.312 96H288a192 192 0 0 0-192 188.8v424.512a96 96 0 0 0 74.688 93.632v-440.32a192 192 0 0 1 192-192h440.32A96 96 0 0 0 710.912 96h-1.6z" fill="#DCE3FA" p-id="39758"></path><path d="M824 266.688H354.688a96 96 0 0 0-96 94.4v65.6h661.312v-64a96 96 0 0 0-94.4-96h-1.6z" fill="#DCE3FA" p-id="39759"></path><path d="M592 305.28c7.36 0 13.376 6.016 13.376 13.44v58.624a13.312 13.312 0 0 1-13.376 13.312H362.688a13.312 13.312 0 0 1-13.376-13.312v-58.688c0-7.36 5.952-13.312 13.376-13.312H592zM848 305.28c7.36 0 13.376 6.016 13.376 13.44v58.624a13.312 13.312 0 0 1-13.376 13.312h-58.688a13.312 13.312 0 0 1-13.312-13.312v-58.688c0-7.36 5.952-13.312 13.312-13.312h58.688z" fill="#1740DC" p-id="39760"></path></svg>