<?xml version="1.0" standalone="no"?><!DOCTYPE svg PUBLIC "-//W3C//DTD SVG 1.1//EN" "http://www.w3.org/Graphics/SVG/1.1/DTD/svg11.dtd"><svg t="1710145966837" class="icon" viewBox="0 0 1024 1024" version="1.1" xmlns="http://www.w3.org/2000/svg" p-id="37746" xmlns:xlink="http://www.w3.org/1999/xlink" width="64" height="64"><path d="M512 146.285714a146.285714 146.285714 0 1 0 0 292.571429 146.285714 146.285714 0 0 0 0-292.571429zM292.571429 292.571429a219.428571 219.428571 0 1 1 438.857142 0A219.428571 219.428571 0 0 1 292.571429 292.571429z" fill="#ffa54d" p-id="37747"></path><path d="M512 512a292.571429 292.571429 0 0 0-292.571429 292.571429v146.285714H146.285714v-146.285714c0-201.984 163.730286-365.714286 365.714286-365.714286a365.421714 365.421714 0 0 1 304.749714 163.474286l-60.928 40.484571A292.278857 292.278857 0 0 0 512 512zM621.714286 877.714286h292.571428v73.142857h-292.571428v-73.142857zM621.714286 731.428571h292.571428v73.142858h-292.571428v-73.142858z" fill="#ffa54d" p-id="37748"></path><path d="M512 731.428571h73.142857v73.142858h-73.142857v-73.142858zM512 877.714286h73.142857v73.142857h-73.142857v-73.142857z" fill="#ffa54d" p-id="37749"></path></svg>