<?xml version="1.0" standalone="no"?><!DOCTYPE svg PUBLIC "-//W3C//DTD SVG 1.1//EN" "http://www.w3.org/Graphics/SVG/1.1/DTD/svg11.dtd"><svg t="1710661484795" class="icon" viewBox="0 0 1024 1024" version="1.1" xmlns="http://www.w3.org/2000/svg" p-id="5424" xmlns:xlink="http://www.w3.org/1999/xlink" width="64" height="64"><path d="M913.556764 411.420444l-12.913777 19.569778a355.953778 355.953778 0 0 1 0 162.019556l12.913777 19.569778a113.777778 113.777778 0 1 1-113.777777 197.12l-25.429334-1.536a401.294222 401.294222 0 0 1-137.784889 80.156444l-11.036444 21.902222a113.777778 113.777778 0 1 1-227.555556 0l-10.922666-21.845333a402.659556 402.659556 0 0 1-137.898667-80.213333l-25.429333 1.536a113.777778 113.777778 0 0 1-113.777778-197.12l12.856889-19.512889a355.783111 355.783111 0 0 1 0-162.133334l-12.856889-19.512889a113.777778 113.777778 0 0 1 113.777778-197.063111l25.372444 1.536a401.066667 401.066667 0 0 1 137.898667-80.213333L397.972764 113.777778a113.777778 113.777778 0 1 1 227.555556 0l10.979556 21.902222a401.521778 401.521778 0 0 1 137.841777 80.213333l25.372445-1.536a113.777778 113.777778 0 1 1 113.834666 197.063111zM511.750542 341.333333a170.666667 170.666667 0 1 0 170.666667 170.666667 170.666667 170.666667 0 0 0-170.666667-170.666667z" fill="#ffffff" p-id="5425"></path></svg>