<?xml version="1.0" standalone="no"?><!DOCTYPE svg PUBLIC "-//W3C//DTD SVG 1.1//EN" "http://www.w3.org/Graphics/SVG/1.1/DTD/svg11.dtd"><svg t="1710144602939" class="icon" viewBox="0 0 1024 1024" version="1.1" xmlns="http://www.w3.org/2000/svg" p-id="14299" xmlns:xlink="http://www.w3.org/1999/xlink" width="64" height="64"><path d="M58.514286 541.257143c-14.628571 14.628571-36.571429 14.628571-43.885715 0S0 504.685714 7.314286 490.057143l475.428571-438.857143c14.628571-14.628571 36.571429-14.628571 58.514286 0l468.114286 438.857143c14.628571 14.628571 14.628571 36.571429 0 51.2-14.628571 14.628571-36.571429 14.628571-43.885715 0L512 117.028571 58.514286 541.257143z m270.628571 373.028571V658.285714c0-21.942857 14.628571-36.571429 36.571429-36.571428h292.571428c21.942857 0 36.571429 14.628571 36.571429 36.571428v256h153.6V658.285714c0-21.942857 14.628571-36.571429 36.571428-36.571428s36.571429 14.628571 36.571429 36.571428v329.142857h-804.571429V658.285714c0-21.942857 14.628571-36.571429 36.571429-36.571428s21.942857 14.628571 21.942857 36.571428v256h153.6z m65.828572 0h234.057142V687.542857H394.971429v226.742857z" fill="#0000b3" p-id="14300"></path></svg>